<svg width="146" height="146" viewBox="0 0 146 146" fill="none" xmlns="http://www.w3.org/2000/svg">
<path d="M60.8333 145.189C26.3611 139.106 0 109.094 0 73C0 32.85 32.85 0 73 0C113.15 0 146 32.85 146 73C146 109.094 119.639 139.106 85.1667 145.189L81.1111 141.944H64.8889L60.8333 145.189Z" fill="url(#paint0_linear)"/>
<path d="M101.389 93.2766L104.633 72.9988H85.1668V58.8044C85.1668 53.1266 87.1946 48.6655 96.1168 48.6655H105.445V30.0099C100.172 29.1988 94.4946 28.3877 89.2224 28.3877C72.5946 28.3877 60.8335 38.5266 60.8335 56.7766V72.9988H42.5835V93.2766H60.8335V144.782C64.8891 145.593 68.9446 145.999 73.0002 145.999C77.0557 145.999 81.1113 145.593 85.1668 144.782V93.2766H101.389Z" fill="white"/>
<defs>
<linearGradient id="paint0_linear" x1="73" y1="140.947" x2="73" y2="0" gradientUnits="userSpaceOnUse">
<stop stop-color="#0062E0"/>
<stop offset="1" stop-color="#19AFFF"/>
</linearGradient>
</defs>
</svg>
